<svg width="512" height="512" viewBox="0 0 512 512" fill="none" xmlns="http://www.w3.org/2000/svg">
<mask id="mask0_22_580" style="mask-type:alpha" maskUnits="userSpaceOnUse" x="0" y="0" width="512" height="512">
<rect width="512" height="512" fill="white"/>
</mask>
<g mask="url(#mask0_22_580)">
<path d="M82.7246 398.262L42.8915 257.798C41.8433 253.605 42.2765 248.713 44.1913 243.123C46.1201 237.532 50.2292 233.689 56.5186 231.592L83.7729 222.158V125.72C83.7729 114.189 87.882 104.322 96.1002 96.1174C104.304 87.8992 114.172 83.7901 125.702 83.7901H188.597V41.8605C188.597 35.9205 190.61 30.9378 194.635 26.9126C198.646 22.9013 203.622 20.8957 209.562 20.8957H293.421C299.361 20.8957 304.344 22.9013 308.369 26.9126C312.38 30.9378 314.386 35.9205 314.386 41.8605V83.7901H377.28C388.811 83.7901 398.685 87.8992 406.903 96.1174C415.108 104.322 419.21 114.189 419.21 125.72V222.158L446.464 231.592C453.802 234.387 458.169 238.489 459.567 243.898C460.965 249.321 461.139 253.955 460.091 257.798L420.258 398.262C407.679 398.262 395.89 395.991 384.89 391.449C373.877 386.906 363.828 381.141 354.743 374.153C351.948 372.056 348.894 370.393 345.581 369.163C342.255 367.947 338.845 367.339 335.351 367.339C331.856 367.339 328.446 367.947 325.12 369.163C321.807 370.393 318.753 372.056 315.958 374.153C306.873 381.141 296.915 386.906 286.083 391.449C275.251 395.991 263.721 398.262 251.491 398.262C239.262 398.262 227.731 395.991 216.899 391.449C206.068 386.906 196.109 381.141 187.025 374.153C184.229 372.056 181.175 370.393 177.863 369.163C174.537 367.947 171.126 367.339 167.632 367.339C164.138 367.339 160.735 367.947 157.422 369.163C154.096 370.393 151.035 372.056 148.24 374.153C139.155 381.141 129.113 386.906 118.113 391.449C107.1 395.991 95.3035 398.262 82.7246 398.262ZM62.8081 482.122C56.868 482.122 51.8924 480.109 47.8811 476.084C43.8559 472.072 41.8433 467.097 41.8433 461.157C41.8433 455.217 43.8559 450.241 47.8811 446.23C51.8924 442.205 56.868 440.192 62.8081 440.192H83.7729C96.0024 440.192 108.057 438.62 119.937 435.475C131.817 432.33 143.348 427.613 154.529 421.324C156.276 420.275 158.282 419.486 160.546 418.955C162.824 418.437 165.186 418.179 167.632 418.179C170.078 418.179 172.44 418.437 174.718 418.955C176.982 419.486 178.988 420.275 180.735 421.324C191.916 427.264 203.447 431.715 215.327 434.678C227.207 437.655 239.262 439.144 251.491 439.144C263.721 439.144 275.776 437.655 287.656 434.678C299.536 431.715 311.066 427.264 322.248 421.324C323.995 420.275 326.007 419.486 328.285 418.955C330.55 418.437 332.905 418.179 335.351 418.179C337.796 418.179 340.152 418.437 342.416 418.955C344.694 419.486 346.707 420.275 348.454 421.324C359.635 427.613 371.165 432.33 383.046 435.475C394.926 438.62 406.98 440.192 419.21 440.192H440.175C446.115 440.192 451.09 442.205 455.102 446.23C459.127 450.241 461.139 455.217 461.139 461.157C461.139 467.097 459.127 472.072 455.102 476.084C451.09 480.109 446.115 482.122 440.175 482.122H419.21C404.534 482.122 390.209 480.374 376.232 476.88C362.255 473.386 348.628 468.145 335.351 461.157C322.073 468.145 308.362 473.386 294.218 476.88C280.059 480.374 265.817 482.122 251.491 482.122C237.165 482.122 222.93 480.374 208.786 476.88C194.628 473.386 180.91 468.145 167.632 461.157C154.354 468.145 140.727 473.386 126.751 476.88C112.774 480.374 98.4482 482.122 83.7729 482.122H62.8081ZM125.702 208.531L238.388 171.842C242.581 170.445 246.949 169.746 251.491 169.746C256.034 169.746 260.401 170.445 264.594 171.842L377.28 208.531V125.72H125.702V208.531Z" fill="#56D2E2"/>
</g>
<path d="M343.575 487.902L253.837 398.138L267.208 396.65L273.151 395.161L279.837 392.928L289.494 389.207L301.38 383.252L308.066 379.53L376.856 454.557C381.346 459.056 383.591 464.614 383.591 471.23C383.591 477.846 381.346 483.403 376.856 487.902C372.365 492.401 366.819 494.651 360.215 494.651C353.612 494.651 348.066 492.401 343.575 487.902ZM124.877 487.902C120.387 483.403 118.142 477.846 118.142 471.23C118.142 464.614 120.387 459.056 124.877 454.557L217.586 361.667L190.645 334.673C187.211 338.114 183.381 339.701 179.155 339.437C174.929 339.172 171.363 337.584 168.458 334.673L159.346 325.543V358.094L156.572 360.873C154.195 363.255 151.422 364.446 148.252 364.446C145.083 364.446 142.309 363.255 139.932 360.873L108.633 329.513C106.256 327.131 105.067 324.352 105.067 321.176C105.067 318.001 106.256 315.222 108.633 312.84L111.406 310.061H143.894L135.178 301.328C132.008 298.152 130.423 294.447 130.423 290.213C130.423 285.979 132.008 282.274 135.178 279.098L180.344 233.844C185.626 228.551 191.305 224.713 197.38 222.332C203.455 219.95 209.662 218.759 216.001 218.759C222.34 218.759 228.547 219.95 234.622 222.332C240.697 224.713 246.376 228.551 251.659 233.844L215.209 270.365L223.925 279.098C226.83 282.009 228.415 285.582 228.679 289.816C228.943 294.05 227.359 297.888 223.925 301.328L250.866 328.322L286.524 292.595C285.467 289.684 284.611 286.64 283.956 283.464C283.291 280.289 282.958 277.113 282.958 273.937C282.958 258.323 288.309 245.154 299.012 234.431C309.703 223.718 322.841 218.362 338.425 218.362C342.387 218.362 346.153 218.759 349.724 219.553C353.285 220.347 356.914 221.538 360.612 223.125L321.389 262.425L349.914 291.007L389.138 251.707C390.986 255.412 392.244 259.048 392.909 262.616C393.564 266.194 393.892 269.968 393.892 273.937C393.892 289.551 388.546 302.715 377.854 313.428C367.151 324.151 354.008 329.513 338.425 329.513C335.255 329.513 332.086 329.248 328.916 328.719C325.747 328.189 322.709 327.263 319.804 325.94L158.157 487.902C153.667 492.401 148.12 494.651 141.517 494.651C134.914 494.651 129.367 492.401 124.877 487.902Z" fill="#0F9DAF"/>
</svg>
