<svg width="791" height="274" viewBox="0 0 791 274" fill="none" xmlns="http://www.w3.org/2000/svg">
<path d="M44.2707 213.133L22.9537 137.962C22.3928 135.718 22.6246 133.101 23.6493 130.109C24.6815 127.117 26.8805 125.06 30.2464 123.938L44.8316 118.889V67.2798C44.8316 61.1091 47.0307 55.8284 51.4287 51.4379C55.8192 47.0399 61.0998 44.8409 67.2705 44.8409H100.929V22.402C100.929 19.2231 102.006 16.5566 104.16 14.4025C106.307 12.2558 108.97 11.1825 112.148 11.1825H157.026C160.205 11.1825 162.871 12.2558 165.026 14.4025C167.172 16.5566 168.246 19.2231 168.246 22.402V44.8409H201.904C208.075 44.8409 213.359 47.0399 217.757 51.4379C222.148 55.8284 224.343 61.1091 224.343 67.2798V118.889L238.928 123.938C242.855 125.434 245.192 127.629 245.94 130.524C246.688 133.426 246.782 135.905 246.221 137.962L224.904 213.133C218.172 213.133 211.863 211.917 205.977 209.486C200.083 207.055 194.705 203.97 189.843 200.23C188.347 199.108 186.713 198.218 184.94 197.56C183.16 196.909 181.335 196.584 179.465 196.584C177.595 196.584 175.77 196.909 173.99 197.56C172.217 198.218 170.583 199.108 169.087 200.23C164.225 203.97 158.896 207.055 153.099 209.486C147.303 211.917 141.132 213.133 134.587 213.133C128.043 213.133 121.872 211.917 116.075 209.486C110.278 207.055 104.949 203.97 100.087 200.23C98.5915 199.108 96.9572 198.218 95.1845 197.56C93.4044 196.909 91.5794 196.584 89.7094 196.584C87.8395 196.584 86.0182 196.909 84.2456 197.56C82.4654 198.218 80.8274 199.108 79.3315 200.23C74.4697 203.97 69.0956 207.055 63.2091 209.486C57.3152 211.917 51.0023 213.133 44.2707 213.133ZM33.6122 258.01C30.4334 258.01 27.7706 256.933 25.624 254.779C23.4698 252.633 22.3928 249.97 22.3928 246.791C22.3928 243.612 23.4698 240.949 25.624 238.803C27.7706 236.649 30.4334 235.572 33.6122 235.572H44.8316C51.3763 235.572 57.8275 234.73 64.1852 233.047C70.5429 231.364 76.7136 228.84 82.6973 225.474C83.6322 224.913 84.7056 224.49 85.9173 224.206C87.1365 223.929 88.4005 223.791 89.7094 223.791C91.0184 223.791 92.2824 223.929 93.5016 224.206C94.7133 224.49 95.7866 224.913 96.7216 225.474C102.705 228.653 108.876 231.035 115.234 232.621C121.591 234.214 128.043 235.011 134.587 235.011C141.132 235.011 147.583 234.214 153.941 232.621C160.298 231.035 166.469 228.653 172.453 225.474C173.388 224.913 174.465 224.49 175.684 224.206C176.896 223.929 178.156 223.791 179.465 223.791C180.774 223.791 182.034 223.929 183.246 224.206C184.465 224.49 185.542 224.913 186.477 225.474C192.461 228.84 198.632 231.364 204.989 233.047C211.347 234.73 217.798 235.572 224.343 235.572H235.562C238.741 235.572 241.404 236.649 243.551 238.803C245.705 240.949 246.782 243.612 246.782 246.791C246.782 249.97 245.705 252.633 243.551 254.779C241.404 256.933 238.741 258.01 235.562 258.01H224.343C216.489 258.01 208.823 257.075 201.343 255.206C193.863 253.336 186.571 250.531 179.465 246.791C172.359 250.531 165.022 253.336 157.452 255.206C149.876 257.075 142.254 258.01 134.587 258.01C126.921 258.01 119.303 257.075 111.733 255.206C104.156 253.336 96.8151 250.531 89.7094 246.791C82.6038 250.531 75.3112 253.336 67.8315 255.206C60.3519 257.075 52.6853 258.01 44.8316 258.01H33.6122ZM67.2705 111.597L127.575 91.9625C129.819 91.2146 132.156 90.8406 134.587 90.8406C137.018 90.8406 139.356 91.2146 141.599 91.9625L201.904 111.597V67.2798H67.2705V111.597Z" fill="#56D2E2"/>
<path d="M183.866 261.104L135.842 213.066L142.998 212.27L146.179 211.473L149.757 210.278L154.925 208.286L161.285 205.1L164.863 203.108L201.677 243.259C204.08 245.667 205.281 248.641 205.281 252.182C205.281 255.722 204.08 258.696 201.677 261.104C199.274 263.512 196.305 264.715 192.772 264.715C189.238 264.715 186.269 263.512 183.866 261.104ZM66.8286 261.104C64.4256 258.696 63.2242 255.722 63.2242 252.182C63.2242 248.641 64.4256 245.667 66.8286 243.259L116.442 193.548L102.025 179.102C100.187 180.944 98.1376 181.793 95.876 181.652C93.6144 181.51 91.7062 180.66 90.1513 179.102L85.2748 174.216V191.636L83.7906 193.123C82.5184 194.398 81.0343 195.035 79.3381 195.035C77.6419 195.035 76.1577 194.398 74.8855 193.123L58.1355 176.341C56.8634 175.066 56.2273 173.579 56.2273 171.88C56.2273 170.18 56.8634 168.693 58.1355 167.418L59.6197 165.931H77.0058L72.3412 161.258C70.645 159.558 69.7969 157.575 69.7969 155.309C69.7969 153.043 70.645 151.06 72.3412 149.361L96.5121 125.143C99.3391 122.31 102.378 120.257 105.629 118.982C108.88 117.707 112.202 117.07 115.594 117.07C118.987 117.07 122.309 117.707 125.56 118.982C128.811 120.257 131.85 122.31 134.677 125.143L115.17 144.687L119.835 149.361C121.39 150.919 122.238 152.831 122.379 155.097C122.521 157.363 121.672 159.416 119.835 161.258L134.253 175.703L153.335 156.584C152.769 155.026 152.311 153.397 151.961 151.698C151.605 149.998 151.427 148.299 151.427 146.599C151.427 138.243 154.29 131.196 160.018 125.457C165.74 119.724 172.77 116.858 181.11 116.858C183.23 116.858 185.246 117.07 187.157 117.495C189.063 117.92 191.005 118.557 192.984 119.407L171.993 140.438L187.259 155.734L208.249 134.703C209.239 136.685 209.912 138.631 210.268 140.54C210.618 142.455 210.794 144.475 210.794 146.599C210.794 154.955 207.933 162 202.211 167.733C196.483 173.471 189.45 176.341 181.11 176.341C179.414 176.341 177.718 176.199 176.022 175.916C174.325 175.633 172.7 175.137 171.145 174.429L84.6387 261.104C82.2357 263.512 79.2674 264.715 75.7336 264.715C72.1999 264.715 69.2315 263.512 66.8286 261.104Z" fill="#0F9DAF"/>
<path d="M382.274 120.723C382.274 126.167 380.961 131.27 378.337 136.033C375.81 140.796 371.776 144.635 366.235 147.551C360.792 150.467 353.891 151.925 345.531 151.925H328.473V191H308.06V89.2302H345.531C353.405 89.2302 360.112 90.5911 365.652 93.3127C371.193 96.0343 375.324 99.7766 378.045 104.539C380.864 109.302 382.274 114.697 382.274 120.723ZM344.657 135.449C350.294 135.449 354.474 134.186 357.196 131.659C359.917 129.034 361.278 125.389 361.278 120.723C361.278 110.809 355.738 105.852 344.657 105.852H328.473V135.449H344.657Z" fill="#065666"/>
<path d="M432.633 192.312C424.857 192.312 417.859 190.611 411.638 187.209C405.417 183.71 400.508 178.801 396.912 172.483C393.413 166.165 391.663 158.875 391.663 150.613C391.663 142.351 393.461 135.061 397.058 128.743C400.751 122.424 405.757 117.564 412.075 114.162C418.393 110.663 425.44 108.913 433.216 108.913C440.993 108.913 448.04 110.663 454.358 114.162C460.676 117.564 465.633 122.424 469.23 128.743C472.923 135.061 474.77 142.351 474.77 150.613C474.77 158.875 472.875 166.165 469.084 172.483C465.39 178.801 460.336 183.71 453.92 187.209C447.602 190.611 440.507 192.312 432.633 192.312ZM432.633 174.524C436.327 174.524 439.778 173.65 442.985 171.9C446.29 170.053 448.915 167.331 450.859 163.735C452.803 160.139 453.775 155.765 453.775 150.613C453.775 142.934 451.733 137.053 447.651 132.971C443.666 128.791 438.757 126.701 432.925 126.701C427.093 126.701 422.184 128.791 418.199 132.971C414.311 137.053 412.367 142.934 412.367 150.613C412.367 158.292 414.262 164.221 418.053 168.401C421.941 172.483 426.801 174.524 432.633 174.524Z" fill="#065666"/>
<path d="M510.156 122.765C512.78 118.488 516.182 115.134 520.362 112.704C524.638 110.274 529.499 109.059 534.942 109.059V130.492H529.547C523.132 130.492 518.272 131.999 514.967 135.012C511.759 138.025 510.156 143.274 510.156 150.759V191H489.743V110.226H510.156V122.765Z" fill="#065666"/>
<path d="M572.456 126.993V166.068C572.456 168.79 573.088 170.782 574.352 172.046C575.713 173.212 577.948 173.795 581.059 173.795H590.536V191H577.705C560.501 191 551.898 182.641 551.898 165.922V126.993H542.275V110.226H551.898V90.2508H572.456V110.226H590.536V126.993H572.456Z" fill="#065666"/>
<path d="M668.058 89.2302V105.706H625.63V131.804H658.143V147.988H625.63V191H605.217V89.2302H668.058Z" fill="#065666"/>
<path d="M692.884 100.603C689.288 100.603 686.274 99.485 683.844 97.2493C681.512 94.9165 680.345 92.0491 680.345 88.647C680.345 85.245 681.512 82.4261 683.844 80.1905C686.274 77.8577 689.288 76.6913 692.884 76.6913C696.481 76.6913 699.445 77.8577 701.778 80.1905C704.208 82.4261 705.423 85.245 705.423 88.647C705.423 92.0491 704.208 94.9165 701.778 97.2493C699.445 99.485 696.481 100.603 692.884 100.603ZM702.944 110.226V191H682.532V110.226H702.944Z" fill="#065666"/>
<path d="M767.727 191L751.106 165.922L736.38 191H714.509L740.9 150.467L714.218 110.226H737.255L753.73 135.158L768.602 110.226H790.472L763.936 150.467L790.764 191H767.727Z" fill="#065666"/>
</svg>
